<svg id="Layer_1_1_" enable-background="new 0 0 64 64" height="512" viewBox="0 0 64 64" width="512" xmlns="http://www.w3.org/2000/svg"><path d="m46.305 42.969c-1.092-1.217-2.327-5.41-3.276-6.869.01.017.019.034.029.051l.067.111c.864 1.416.311 3.269-1.187 3.981-1.217.579-2.674.207-3.465-.884l-4.984-6.876-.982 8.571c-.126 1.098-1.077 1.914-2.182 1.872-1.113-.043-2.002-.943-2.032-2.056l-.189-7.1-2.324 2.728c-.775.91-2.12 1.072-3.089.373-.526-.38-.838-.946-.92-1.548-1.371 2.328-2.726 5.738-4.508 7.634l-15.263 19.043h60z" fill="#262626"/><path d="m43.126 36.262-.067-.111c-.01-.017-.019-.034-.029-.051-1.082-1.78-2.048-3.629-2.888-5.536l-2.452-5.564-3.414 2.276-3.414-2.276-2.276 2.276-2.276-2.276-3.248 7.038c-.245.53-.758 1.367-1.038 1.879-.242.443-.315.934-.25 1.404.082.602.394 1.168.92 1.548.97.7 2.314.537 3.089-.373l2.324-2.728.189 7.1c.03 1.114.918 2.013 2.032 2.056 1.105.043 2.056-.773 2.182-1.872l.982-8.571 4.984 6.876c.791 1.091 2.247 1.463 3.465.884 1.496-.71 2.049-2.563 1.185-3.979z" fill="#c24827"/><path d="m43.126 36.262-.067-.111c-.01-.017-.019-.034-.029-.051-1.082-1.78-2.048-3.629-2.888-5.536l-2.452-5.564-3.414 2.276-3.414-2.276-2.276 2.276-2.276-2.276-3.248 7.038c-.219.473-.773 1.405-1.028 1.86-.251.448-.326.946-.261 1.423.057.417.232.813.505 1.146.273-.473.602-1.036.784-1.429l2.455-5.319c.385-.834 1.482-1.03 2.132-.38l.004.004c.515.515 1.351.515 1.867 0l.577-.577c.445-.445 1.142-.514 1.666-.165l1.781 1.187c.443.296 1.021.296 1.464 0l1.375-.916c.682-.455 1.61-.184 1.94.566l1.26 2.861c.733 1.664 2.568 5.228 3.454 6.815.007.013.014.025.021.038l.033.054c.546-.866.611-1.999.035-2.944z" fill="#eedb74"/><path d="" fill="#9c9c9c"/><path d="m3 2c0 5 2 5 2 5 0 1.105.895 2 2 2s2.277-.895 2.277-2c.693 1.191 2.246 2 3.723 2s3.03-.809 3.723-2c0 1.87 1.482 3.441 3.277 3.878h.087c-.051.368-.087.74-.087 1.122 0 2.455 1.105 4.651 2.846 6.118 2.587 2.181 4.387 5.109 4.95 8.367l.791.791 2.275-2.276 3.414 2.276 2.798-1.865-.127-4.407c.032-.024 1.434-1.627 1.434-1.627.324-.586.528-1.243.591-1.944.232.028.467.046.707.046 2.027 0 3.815-1.016 4.889-2.564.912.214 1.909.005 2.666-.66 1.213-1.065 1.351-2.887.347-4.132 1.001-.734 1.696-1.852 1.696-3.123.693 1.191 2.246 2 3.723 2s3.03-.809 3.723-2c0 1.105 1.173 2 2.277 2s2-.895 2-2v-5z" fill="#d1d1d1"/><g fill="#b3b3b3"><path d="m59 5.724c-.652 0-1.328-.312-1.772-.795-.394-.427-1.059-.441-1.528-.099-.764.558-1.748.894-2.7.894-.873 0-1.773-.283-2.506-.761-.583-.38-1.338-.109-1.676.5-.155.279-.345.54-.562.778-.343.376-.419.892-.229 1.364.269.669.281 1.411.054 2.085.723-.708 1.196-1.646 1.196-2.69.693 1.191 2.246 2 3.723 2s3.03-.809 3.723-2c0 1.105 1.173 2 2.277 2s2-.895 2-2v-.196c0-.772-.727-1.353-1.472-1.15-.168.046-.345.07-.528.07z"/><path d="m32.745 22.979c-1.095-.73-2.552-.586-3.483.345l-.676.676-.791-.791c-.563-3.258-2.363-6.185-4.95-8.367-1.74-1.467-2.845-3.663-2.845-6.118 0-.382.036-.754.087-1.121h-.087c-.898-.219-1.717-.721-2.312-1.402-.786-.899-2.082-1.127-3.21-.734-.477.166-.982.257-1.478.257-.668 0-1.352-.166-1.964-.457-.878-.418-1.935-.448-2.757.071-.384.243-.837.386-1.279.386-1.105 0-2-.895-2-2 0 0-.979-.007-1.567-1.724h-.433c0 5 2 5 2 5 0 1.105.895 2 2 2s2.277-.895 2.277-2c.693 1.191 2.246 2 3.723 2s3.03-.809 3.723-2c0 1.87 1.482 3.441 3.277 3.878h.087c-.051.368-.087.74-.087 1.122 0 2.455 1.105 4.651 2.846 6.118 2.587 2.181 4.387 5.109 4.95 8.367l.791.791 2.275-2.276 3.414 2.276 2.798-1.865-.093-3.214-1.174.783c-.927.617-2.135.617-3.062-.001z"/><path d="m47.234 10.978c-.541.475-1.205.718-1.872.739-.49.016-.961.182-1.291.544-1.087 1.192-2.652 1.941-4.392 1.941-.24 0-.475-.018-.707-.046-.063.701-.267 1.358-.591 1.944 0 0-.573.655-.995 1.134-.283.321-.433.737-.42 1.165l.072 2.504c.312-.348 1.343-1.527 1.343-1.527.324-.586.528-1.243.591-1.944.232.028.467.046.707.046 2.027 0 3.815-1.016 4.889-2.564.912.214 1.909.005 2.666-.66 1.135-.997 1.316-2.652.512-3.881-.144.217-.307.425-.512.605z"/></g></svg>