<svg id="Capa_1" enable-background="new 0 0 512 512" height="512" viewBox="0 0 512 512" width="512" xmlns="http://www.w3.org/2000/svg"><g fill="#f8f3f1"><path d="m447.413 156.989c-1.881 0-3.768-.683-5.256-2.064-7.498-6.962-17.492-13.208-30.553-19.097-3.89-1.754-5.623-6.329-3.868-10.219 1.754-3.891 6.332-5.622 10.218-3.868 14.616 6.589 25.972 13.739 34.718 21.86 3.127 2.903 3.308 7.792.404 10.919-1.521 1.639-3.589 2.469-5.663 2.469z"/><path d="m116.34 211.279c-1.578 0-3.171-.482-4.544-1.483-24.803-18.077-28.753-38.575-27.697-52.588.777-10.325 5.626-29.837 29.365-44.509 7.09-4.381 15.27-8.047 25.009-11.206 4.055-1.315 8.417.906 9.733 4.965 1.317 4.059-.906 8.417-4.965 9.733-8.547 2.773-15.63 5.93-21.653 9.653-17.915 11.072-21.524 25.13-22.081 32.524-.76 10.099 2.334 25.052 21.389 38.94 3.449 2.514 4.207 7.346 1.693 10.795-1.512 2.075-3.864 3.176-6.249 3.176z"/><path d="m331.342 344.264c-2.211 0-4.407-.944-5.936-2.775-2.734-3.276-2.296-8.148.98-10.882 17.26-14.407 18.001-29.5 16.906-37.215-1.016-7.163-5.418-20.532-23.482-29.586-3.555-1.782-7.571-3.375-11.938-4.735-4.074-1.269-6.348-5.601-5.078-9.675 1.268-4.073 5.598-6.349 9.674-5.078 5.164 1.609 9.964 3.518 14.266 5.674 24.363 12.21 30.418 31.073 31.858 41.23 1.545 10.896.703 32.042-22.303 51.247-1.445 1.206-3.2 1.795-4.947 1.795z"/></g><path d="m416.636 66.56-322.127 10.127s36.087 20.367 60.42 52.797c4.43 5.893 8.468 12.187 11.826 18.842 13.073 25.827 15.916 56.918-8.375 90.337-11.991 16.503-19.697 33.543-23.581 50.489-.221.959-.429 1.918-.626 2.877 4.431 8.602-2.186 15.098-2.351 19.107-2.699 66.529 51.396 127.083 131.636 141.464 0 0-71.134-48.686 16.813-160.914 4.502-5.738 9.416-11.651 14.783-17.729 5.238-5.934 10.908-12.031 17.03-18.29-2.578-2.762 26.771-26.411 28.021-26.83 5.749-5.189 11.776-10.471 18.13-15.857 18.348-15.556 31.544-31.101 40.939-45.936 1.656-2.611 3.187-5.197 4.613-7.759-.24-2.12 9.813-23.034 10.637-23.981 13.346-39.773 2.212-68.744 2.212-68.744z" fill="#fca863"/><path d="m416.636 66.56-25.971.814c2.74 8.18 22.53 76.759-58.679 145.606-92.147 78.127-119.211 135.32-121.741 174.196-.81 12.449-12.425 21.31-24.697 19.067-5.75-1.051-11.52-2.051-17.309-2.999 15.427 16.216 35.206 29.609 58.266 38.823l.012.015c11.528 4.615 23.89 8.18 36.942 10.518 0 0-86.275-59.065 48.728-197.023-2.71-2.716 26.567-26.22 27.814-26.639 5.779-5.221 11.84-10.535 18.235-15.958 21.573-18.29 36.014-36.559 45.545-53.683-1.341-2.846 9.326-22.556 10.539-23.648 13.526-39.95 2.316-69.089 2.316-69.089z" fill="#fc9744"/><path d="m391.07 248.676c-3.658 0-6.908-2.609-7.591-6.336-.769-4.198 2.01-8.223 6.208-8.992 16.814-3.079 30.53-7.339 40.767-12.661 3.784-1.967 8.451-.495 10.419 3.291 1.969 3.786.495 8.451-3.291 10.42-11.605 6.034-26.783 10.795-45.113 14.151-.468.085-.937.127-1.399.127z" fill="#f8f3f1"/><path d="m318.022 223.588c-14.108 0-28.81-.558-43.781-1.685-42.114-3.171-81.473-10.481-110.828-20.583-33.322-11.467-49.641-24.952-48.501-40.079.999-13.269 15.224-23.328 42.281-29.898.104-.026.209-.049.314-.069l14.86-2.959c4.184-.837 8.255 1.884 9.087 6.068.833 4.185-1.883 8.253-6.068 9.087l-14.7 2.928c-23.443 5.716-30.119 12.746-30.364 16.005-.284 3.772 7.318 13.707 38.121 24.307 28.141 9.684 66.127 16.71 106.961 19.785 40.831 3.076 79.444 1.815 108.717-3.545 32.043-5.868 41.046-14.553 41.331-18.325.216-2.871-4.343-9.942-22.778-18.283l-9.005-3.547c-3.97-1.564-5.921-6.05-4.357-10.021 1.565-3.97 6.053-5.918 10.021-4.357l9.181 3.617c.116.046.23.094.344.145 22.163 9.992 32.93 21.299 32.002 33.607-1.138 15.128-19.292 26.017-53.956 32.365-19.683 3.602-43.302 5.437-68.882 5.437z" fill="#f8f3f1"/><path d="m175.378 146.605-8.623 1.72c-3.358-6.655-7.397-12.949-11.826-18.842l16.39-3.266c5.635-1.133 11.105 2.534 12.228 8.159 1.123 5.636-2.534 11.106-8.169 12.229z" fill="#fca863"/><path d="m404.347 158.282c-1.58 2.889-3.3 5.811-5.172 8.762l-6.707-2.637c-5.161-2.029-7.695-7.871-5.656-13.032 2.029-5.151 7.86-7.685 13.022-5.656 4.993 1.962 7.087 7.856 4.513 12.563z" fill="#fc9744"/><path d="m112.192 387.434c-.383 0-.77-.028-1.16-.087-12.125-1.825-22.558-4.633-31.012-8.345-11.226-4.929-19.912-11.824-25.818-20.493-2.402-3.527-1.491-8.333 2.035-10.735 3.526-2.403 8.334-1.491 10.735 2.036 4.248 6.236 10.728 11.298 19.26 15.044 7.206 3.164 16.323 5.591 27.1 7.213 4.219.635 7.126 4.571 6.49 8.79-.577 3.83-3.871 6.577-7.63 6.577z" fill="#f8f3f1"/><path d="m150.306 359.065c-10.437 0-20.191-.505-28.985-1.524-27.695-3.209-42.63-11.128-44.39-23.536-2.623-18.487 26.592-32.362 51.56-40.745l15.472-5.153c4.049-1.349 8.424.841 9.772 4.889 1.349 4.049-.84 8.424-4.888 9.772l-15.454 5.147c-34.959 11.738-41.434 22.007-41.162 23.92.206 1.456 6.05 7.48 30.869 10.356 22.456 2.603 51.818 1.625 82.672-2.752 30.856-4.377 59.33-11.604 80.177-20.349 23.04-9.665 26.978-17.077 26.772-18.533-.174-1.225-4.915-6.44-24.935-9.555l-12.31-2.048c-4.209-.701-7.053-4.681-6.353-8.89.7-4.21 4.677-7.054 8.89-6.354l12.229 2.035c23.427 3.645 36.164 11.267 37.778 22.641 1.76 12.409-10.384 24.169-36.094 34.953-22.031 9.242-51.858 16.842-83.984 21.399-20.222 2.87-39.908 4.327-57.636 4.327z" fill="#f8f3f1"/><path d="m156.021 292.582c-1.741-5.223-7.376-8.046-12.589-6.305l-8.633 2.874c-.193.838-.375 1.675-.549 2.512 5.027.022-2.164 15.578-2.194 15.578-.098 1.3-.181 2.599-.234 3.894l17.894-5.965c5.223-1.74 8.046-7.376 6.305-12.588z" fill="#fca863"/><path d="m295.054 273.956c-5.367 6.078-10.281 11.991-14.783 17.729l-4.883-.814c-5.429-.896-9.107-6.037-8.2-11.476.907-5.429 6.037-9.107 11.476-8.2l15.782 2.627c.206.031.412.072.608.134z" fill="#fc9744"/><ellipse cx="250.242" cy="69.648" fill="#fb8627" rx="172.57" ry="40.801"/><path d="m399.736 90.054c-29.834 12.187-85.608 20.398-149.49 20.398s-119.655-8.2-149.49-20.398c29.834-12.208 85.608-20.408 149.49-20.408s119.656 8.211 149.49 20.408z" fill="#f2671f"/><path d="m414.792 134.253c-2.658 8.138-6.336 16.74-11.342 25.641-18.214 9.169-47.79 18.966-90.975 18.966-16.607 0-35.222-1.453-56.001-4.945-4.203-.711-7.046-4.698-6.336-8.901.711-4.213 4.687-7.046 8.901-6.336 44.03 7.397 82.713 6.16 114.968-3.678 24.529-7.478 37.293-17.646 40.785-20.747z" fill="#f8f3f1"/><path d="m219.841 323.364c-14.577 3.297-27.702 4.945-39.312 4.945-17.142 0-31.008-3.595-41.424-10.755-2.843-1.957-5.254-4.069-7.294-6.243.34-8.571 1.617-17.245 3.915-25.93.082.299.155.608.196.927.494 3.431 2.648 12.115 11.94 18.512 13.588 9.344 37.292 10.549 68.569 3.472 4.162-.948 8.303 1.669 9.241 5.831.937 4.162-1.669 8.303-5.831 9.241z" fill="#f8f3f1"/><path d="m341.557 227.515c-10.899 9.787-20.738 19.213-29.618 28.309-12.836 3.008-28.732 5.089-48.12 5.089-11.239 0-23.653-.701-37.324-2.339-4.244-.505-7.263-4.347-6.758-8.581.505-4.244 4.368-7.252 8.581-6.758 67.334 8.047 100.619-7.324 113.239-15.72z" fill="#f8f3f1"/><path d="m405.736 291.095c-.013 0-.025 0-.037 0h-.107c-4.268-.02-7.71-3.495-7.69-7.763.02-4.255 3.476-7.69 7.725-7.69h.037l.107.001c4.268.02 7.71 3.495 7.69 7.763-.019 4.253-3.475 7.689-7.725 7.689z" fill="#e0d3ce"/><path d="m52.278 317.771c-.013 0-.024 0-.037 0l-.108-.001c-4.267-.02-7.71-3.495-7.69-7.763.02-4.255 3.476-7.69 7.725-7.69h.037.108c4.267.02 7.71 3.495 7.69 7.763-.02 4.256-3.476 7.691-7.725 7.691z" fill="#e0d3ce"/><path d="m447.47 45.159c-.013 0-.024 0-.037 0l-.108-.001c-4.267-.02-7.71-3.495-7.69-7.763.02-4.255 3.476-7.69 7.725-7.69h.037l.108.001c4.267.02 7.71 3.495 7.69 7.763-.02 4.255-3.476 7.69-7.725 7.69z" fill="#e0d3ce"/><path d="m290.571 460.335c17.253 5.213 34.806 8.431 52.483 11.813 18.596 3.558 168.946 11.002 168.946 11.002v-62.7c0-5.735-4.69-10.378-10.425-10.307-102.191 1.278-183.737 21.155-240.203 41.007 9.744 3.017 19.432 6.234 29.199 9.185z" fill="#fca863"/><path d="m290.571 460.335c17.253 5.213 34.806 8.431 52.483 11.813 18.596 3.558 168.942 11.005 168.942 11.005v-19.275c-67.697-2.824-135.042-12.269-200.718-28.121-18.334 4.904-34.988 10.15-49.903 15.394 9.743 3.017 19.43 6.233 29.196 9.184z" fill="#fc9744"/><path d="m512 483.15c-82.587-3.39-164.547-16.39-244.193-38.866-67.604-19.078-154.33-34.944-257.403-35.952-5.727-.056-10.404 4.579-10.404 10.307v54.209c0 5.69 4.612 10.302 10.302 10.302z" fill="#fddaa9"/><path d="m272.145 421.783c-2.89 0-5.662-1.629-6.985-4.414-1.83-3.855-.189-8.463 3.666-10.294l85.161-40.44c3.853-1.83 8.462-.19 10.294 3.665 1.83 3.855.189 8.463-3.666 10.294l-85.161 40.44c-1.07.508-2.198.749-3.309.749z" fill="#f8f3f1"/><path d="m264.577 392.93c-1.447 0-2.91-.406-4.213-1.255-3.574-2.331-4.583-7.118-2.252-10.692l7.555-11.588c2.33-3.575 7.116-4.584 10.692-2.253 3.574 2.331 4.582 7.118 2.251 10.692l-7.555 11.588c-1.48 2.272-3.953 3.508-6.478 3.508z" fill="#f8f3f1"/></svg>