<?xml version="1.0" encoding="iso-8859-1"?>
<!-- Generator: Adobe Illustrator 19.0.0, SVG Export Plug-In . SVG Version: 6.00 Build 0)  -->
<svg version="1.1" id="Layer_1" xmlns="http://www.w3.org/2000/svg" xmlns:xlink="http://www.w3.org/1999/xlink" x="0px" y="0px"
	 viewBox="0 0 512 512" style="enable-background:new 0 0 512 512;" xml:space="preserve">
<g>
	<path style="fill:#54423C;" d="M263.67,453.854l-9.687-41.755c-0.95-4.095,1.6-8.186,5.696-9.136
		c4.097-0.952,8.186,1.599,9.137,5.696l9.687,41.755c0.95,4.095-1.6,8.186-5.696,9.136C268.72,460.5,264.622,457.958,263.67,453.854
		z"/>
	<path style="fill:#54423C;" d="M146.077,459.746c-4.205,0-7.613-3.408-7.613-7.613v-41.755c0-4.205,3.408-7.613,7.613-7.613
		c4.204,0,7.613,3.408,7.613,7.613v41.755C153.69,456.339,150.281,459.746,146.077,459.746z"/>
	<path style="fill:#54423C;" d="M48.697,459.746c-4.204,0-7.613-3.408-7.613-7.613v-41.755c0-4.205,3.408-7.613,7.613-7.613
		s7.613,3.408,7.613,7.613v41.755C56.309,456.339,52.9,459.746,48.697,459.746z"/>
</g>
<g>
	<path style="fill:#95B737;" d="M193.933,402.116l-17.195-27.191c0.13,0,10.902,0,10.773,0c4.423,0,6.93-5.039,4.344-8.566
		l-21.243-33.591c3.544,0,4.722,0,8.289,0c4.421,0,6.932-5.045,4.345-8.567l-26.77-42.329c-5.34-8.444-15.448-8.456-20.796,0
		l-26.963,42.632c-1.048,1.66-1.111,3.757-0.164,5.476c1.925,3.5,5.017,2.788,12.99,2.788l-21.434,33.894
		c-1.05,1.658-1.113,3.757-0.167,5.476c0.946,1.719,2.755,2.786,4.717,2.786h10.755l-17.195,27.191
		c-2.265,3.584,0.317,8.263,4.551,8.263h86.611c1.963,0,3.77-1.068,4.717-2.787C195.048,405.873,194.982,403.775,193.933,402.116z"
		/>
	<path style="fill:#95B737;" d="M303.941,389.129l-23.133-22.357l10.451-2.543c1.39,0,4.925-2.595,3.974-6.509
		c-0.499-2.057,1.097-0.082-30.343-30.464c0.007-0.002,8.045-1.958,8.052-1.958c4.302-1.047,5.543-6.539,2.201-9.352l-36.015-34.804
		c-3.426-3.311-7.655-4.659-11.602-3.699c-3.945,0.96-7.084,4.102-8.607,8.616l-16.121,47.795c-1.356,4.031,2.28,7.952,6.375,6.955
		l8.04-1.956l-12.815,38c-1.356,4.011,2.257,7.954,6.374,6.952l10.453-2.543l-10.282,30.489c-1.357,4.02,2.264,7.953,6.374,6.954
		l84.158-20.47c1.908-0.464,3.411-1.929,3.925-3.822C305.909,392.517,305.351,390.495,303.941,389.129z"/>
</g>
<path style="fill:#84A316;" d="M241.637,412.783c-1.907,0.464-3.915-0.148-5.242-1.593c-1.326-1.447-1.76-3.501-1.132-5.361
	l10.281-30.486l-10.453,2.543c-4.115,1.001-7.73-2.94-6.374-6.952l12.815-38c-7.697,1.872-10.574,3.316-13.279,0.36
	c-1.328-1.445-1.761-3.497-1.135-5.359l14.854-44.038l-2.847-2.752c-7.184-6.943-17.009-4.564-20.209,4.917l-16.121,47.795
	c-1.356,4.031,2.28,7.952,6.375,6.955l8.04-1.956l-12.815,38c-0.629,1.859-0.194,3.914,1.133,5.36
	c1.326,1.446,3.335,2.056,5.241,1.592l10.453-2.543l-10.281,30.486c-0.628,1.86-0.194,3.914,1.132,5.361
	c1.327,1.445,3.335,2.057,5.242,1.593c0.629-0.153,84.231-20.492,84.231-20.492L241.637,412.783z"/>
<path style="fill:#95B737;" d="M96.553,402.116l-17.195-27.191h10.757c3.015,0,5.398-2.431,5.398-5.386
	c0-2.113,1.092,0.193-22.283-36.771h8.274c3.02,0,5.4-2.437,5.4-5.386c0-2.132,1.664,1.095-27.811-45.51
	c-2.547-4.027-6.336-6.337-10.396-6.337c-4.064,0-7.854,2.311-10.4,6.337l-26.961,42.632c-2.269,3.589,0.327,8.264,4.55,8.264h8.274
	L2.726,366.663c-2.262,3.58,0.316,8.262,4.553,8.262h10.756L0.84,402.116c-2.263,3.581,0.313,8.263,4.551,8.263h86.611
	c1.963,0,3.77-1.068,4.717-2.787C97.666,405.873,97.601,403.775,96.553,402.116z"/>
<path style="fill:#84A316;" d="M25.877,402.116l17.196-27.191H32.315c-4.235,0-6.816-4.68-4.553-8.262l21.435-33.894
	c-7.927,0-11.054,0.721-12.989-2.788c-0.948-1.719-0.884-3.815,0.166-5.476l24.84-39.278c-2.229-3.526-5.371-9.691-12.516-9.691
	c-4.064,0-7.854,2.311-10.4,6.337l-26.961,42.632c-2.269,3.589,0.327,8.264,4.55,8.264h8.274L2.726,366.663
	c-2.262,3.58,0.316,8.262,4.553,8.262h10.756L0.84,402.116c-2.263,3.581,0.313,8.263,4.551,8.263h25.037
	C26.191,410.379,23.613,405.698,25.877,402.116z"/>
<g>
	<path style="fill:#8C614B;" d="M0.006,464.314c0-6.728,5.453-12.18,12.18-12.18h480.07c6.727,0,12.18,5.453,12.18,12.18v35.493
		c0,6.728-5.454,12.18-12.18,12.18H12.186c-6.728,0-12.18-5.453-12.18-12.18C0.006,499.808,0.006,464.314,0.006,464.314z"/>
	<path style="fill:#8C614B;" d="M208.379,224.629c0,0,7.596-2.792,5.344-7.423c-2.249-4.626-7.656-2.328-9.924-5.105
		c-2.267-2.778-6.964-2.349-8.762,1.975C193.241,218.4,200.72,228.562,208.379,224.629z"/>
	<path style="fill:#8C614B;" d="M469.521,398.226c0,0,7.596-2.792,5.344-7.423c-2.249-4.626-7.656-2.328-9.924-5.105
		c-2.267-2.778-6.964-2.349-8.762,1.975S461.86,402.159,469.521,398.226z"/>
	<path style="fill:#8C614B;" d="M296.754,266.326c0,0-7.596-2.792-5.344-7.423c2.249-4.626,7.656-2.328,9.924-5.105
		c2.267-2.778,6.964-2.349,8.762,1.975C311.893,260.098,304.415,270.26,296.754,266.326z"/>
	<path style="fill:#8C614B;" d="M326.537,418.418c0,0-3.444-11.244-9.854-8.745c-6.412,2.498-3.536,10.548-7.427,13.351
		c-3.894,2.803-3.533,9.557,2.271,12.778C317.333,439.024,331.53,429.927,326.537,418.418z"/>
	<path style="fill:#8C614B;" d="M423.653,429.319c0,0,11.304,3.238,12.7-3.501c1.398-6.737-6.92-8.71-7.153-13.5
		c-0.23-4.792-6.09-8.168-11.953-5.056C411.385,410.377,411.282,427.239,423.653,429.319z"/>
</g>
<path style="fill:#1C9B4F;" d="M79.358,374.924c0.196,0,10.965,0,10.77,0c4.424,0,6.935-5.039,4.345-8.566L73.23,332.767H24.162
	L2.726,366.663c-1.048,1.658-1.111,3.757-0.165,5.476c0.948,1.719,2.755,2.786,4.717,2.786h10.756L0.84,402.116
	c-2.263,3.581,0.313,8.263,4.551,8.263h86.611c4.229,0,6.819-4.673,4.552-8.263L79.358,374.924z"/>
<path style="fill:#20894A;" d="M25.877,402.116l17.196-27.191H32.315c-4.235,0-6.816-4.68-4.553-8.262l21.435-33.894
	c-10.773,0-14.269,0-25.037,0L2.726,366.663c-1.048,1.658-1.111,3.757-0.165,5.476c0.948,1.719,2.755,2.786,4.717,2.786h10.756
	L0.84,402.116c-2.263,3.581,0.313,8.263,4.551,8.263h25.037C26.191,410.379,23.613,405.698,25.877,402.116z"/>
<path style="fill:#008212;" d="M79.358,374.924H18.035L0.84,402.116c-2.263,3.581,0.313,8.263,4.551,8.263h86.611
	c4.229,0,6.819-4.673,4.552-8.263L79.358,374.924z"/>
<path style="fill:#036D0C;" d="M25.877,402.116l17.196-27.191c-14.013,0-10.982,0-25.037,0L0.84,402.116
	c-2.263,3.581,0.313,8.263,4.551,8.263h25.037C26.191,410.379,23.613,405.698,25.877,402.116z"/>
<path style="fill:#1C9B4F;" d="M176.74,374.924c0.196,0,10.965,0,10.77,0c4.424,0,6.935-5.039,4.345-8.566l-21.242-33.591h-49.07
	l-21.435,33.894c-1.048,1.658-1.111,3.757-0.165,5.476c0.948,1.719,2.755,2.786,4.717,2.786h10.757l-17.196,27.191
	c-2.263,3.581,0.313,8.263,4.551,8.263h86.611c1.963,0,3.77-1.068,4.717-2.787c0.948-1.72,0.882-3.817-0.166-5.477L176.74,374.924z"
	/>
<path style="fill:#008212;" d="M176.74,374.924h-61.323L98.22,402.115c-2.263,3.581,0.313,8.263,4.551,8.263h86.611
	c1.963,0,3.77-1.068,4.717-2.787c0.948-1.72,0.882-3.817-0.166-5.477L176.74,374.924z"/>
<path style="fill:#1C9B4F;" d="M280.808,366.772c0.017-0.004,10.449-2.543,10.467-2.546c4.292-1.045,5.545-6.528,2.197-9.351
	l-28.581-27.619l-47.679,11.597l-12.815,38c-0.629,1.859-0.194,3.914,1.133,5.36c1.326,1.446,3.335,2.056,5.241,1.592l10.453-2.543
	l-10.283,30.488c-0.628,1.86-0.194,3.914,1.132,5.361c1.327,1.445,3.335,2.057,5.242,1.593l84.158-20.47
	c4.116-1.001,5.515-6.157,2.469-9.106L280.808,366.772z"/>
<path style="fill:#20894A;" d="M241.637,412.783c-1.907,0.464-3.915-0.148-5.242-1.593c-1.326-1.447-1.76-3.501-1.132-5.361
	l10.281-30.486l-10.453,2.543c-4.115,1.001-7.73-2.94-6.374-6.952l12.813-37.994l-24.322,5.916l-12.815,38
	c-1.356,4.011,2.257,7.954,6.374,6.952l10.453-2.543l-10.28,30.486c-0.628,1.86-0.194,3.914,1.132,5.361
	c1.327,1.445,3.335,2.057,5.242,1.593c0.158-0.038,84.07-20.446,84.226-20.492L241.637,412.783z"/>
<path style="fill:#008212;" d="M303.941,389.129l-23.133-22.357l-59.586,14.492l-10.543,31.799c-0.28,3.673,3.103,6.499,6.635,5.64
	l84.158-20.47C305.588,397.233,306.986,392.078,303.941,389.129z"/>
<path style="fill:#036D0C;" d="M241.637,412.783c-1.907,0.464-3.915-0.148-5.242-1.593c-1.326-1.447-1.76-3.501-1.132-5.361
	l10.279-30.481l-24.322,5.916c-10.833,32.676-10.984,31.859-10.27,33.952v0.002c0.107,0.314,0.251,0.615,0.415,0.904
	c0.035,0.063,0.072,0.123,0.11,0.183c0.174,0.283,0.367,0.555,0.596,0.805c1.327,1.445,3.335,2.057,5.242,1.593
	c0.158-0.038,84.07-20.446,84.226-20.492L241.637,412.783z"/>
<path style="fill:#97C9FF;" d="M476.422,191.841c0-22.617,9.549-41.874,19.179-55.554l-0.004-0.001c0,0,0.017-0.021,0.046-0.057
	c9.227-13.147,6.359-22.012-11.301-22.012c-76.657,0-180.266,0-222.777,0c-17.669,0-18.645,11.771-18.216,16.969
	c13.961,96.398,145.62,110.282,145.62,159.116c0,51.568-44.268,40.467-44.268,94.549c0,54.084,52.905,67.353,52.905,67.353
	c-51.825-98.104,105.906-80.31,105.906-160.979C503.511,243.516,476.422,237.476,476.422,191.841z"/>
<g>
	<path style="fill:#76B4FF;" d="M511.992,76.167c-0.326-8.044-9.203-9.171-13.973-9.777c-5.649-0.718-13.895-1.173-25.21-1.393
		c-47.61-0.923-99.46-1.352-143.5-2.096c36.102-3.38,114.428-11.348,149.523-20.796c11.134-2.998,21.992-6.697,21.82-15.935
		c-0.221-11.991-13.363-19.82-156.924-26.149c-3.965-0.209-7.327,3.088-7.493,7.289c-0.165,4.201,2.921,7.749,6.893,7.923
		c84,3.704,119.389,8.31,134.284,11.544c-50.826,14.478-189.849,23.619-222.405,28.1c-9.824,1.353-20.502,2.272-20.214,11.171
		c0.434,13.275,13.077,10.207,226.3,13.961c-19.307,3.275-48.09,9.609-90.979,15.165c-31.85,4.126-113.543,16.917-120.659,20.663
		c8.404-3.413,17.426-0.605,93.232-0.605c68.762-10.324,136.08-22.256,153.093-26.649C503.149,86.679,512.321,84.31,511.992,76.167z
		"/>
	<path style="fill:#76B4FF;" d="M353.4,213.047c-0.003-0.003-0.007-0.006-0.01-0.009c-54.358-51.154-10.704-97.805-10.704-97.805
		c-5.366-1.411,4.996-1.015-81.122-1.015c-17.669,0-18.645,11.771-18.216,16.969c3.667,25.416,15.683,46.232,34.161,64.367
		c0.508,1.015,11.935,11.201,24.638,20.3c40.615,28.863,86.821,45.516,86.821,74.448c0,51.568-44.268,40.467-44.268,94.549
		c0,46.967,39.889,63.151,50.391,66.598c-67.4-48.185,0.105-106.158,0.126-106.176c3.314-4.269,5.616-6.716,5.616-6.716l0.001,0.003
		c8.048-10.714,15.45-22.433,15.45-48.75C416.284,259.685,384.12,241.444,353.4,213.047z"/>
</g>
<path style="fill:#725346;" d="M155.117,452.134H12.186c-6.728,0-12.18,5.453-12.18,12.18v35.493c0,6.728,5.453,12.18,12.18,12.18
	h180.471C172.422,498.849,158.229,477.216,155.117,452.134z"/>
<path style="fill:#84A316;" d="M123.257,402.116l17.196-27.191h-10.757c-4.235,0-6.816-4.681-4.553-8.262l21.435-33.894
	c-7.927,0-11.054,0.721-12.989-2.788c-0.948-1.719-0.884-3.815,0.166-5.476l24.84-39.278l-2.12-3.353
	c-5.341-8.446-15.449-8.454-20.796,0l-26.961,42.632c-1.05,1.66-1.113,3.757-0.166,5.476c1.927,3.496,4.974,2.788,12.989,2.788
	l-21.435,33.894c-2.262,3.58,0.316,8.262,4.553,8.262h10.756L98.22,402.117c-2.263,3.581,0.313,8.263,4.551,8.263h25.037
	C123.572,410.379,120.994,405.698,123.257,402.116z"/>
<path style="fill:#20894A;" d="M123.257,402.116l17.196-27.191h-10.757c-4.235,0-6.816-4.681-4.553-8.262l21.435-33.894
	c-10.773,0-14.269,0-25.037,0l-21.435,33.894c-2.262,3.58,0.316,8.262,4.553,8.262h10.756L98.22,402.116
	c-2.263,3.581,0.313,8.263,4.551,8.263h25.037C123.572,410.379,120.994,405.698,123.257,402.116z"/>
<path style="fill:#036D0C;" d="M123.257,402.116l17.196-27.191c-14.013,0-10.982,0-25.037,0L98.22,402.116
	c-2.263,3.581,0.313,8.263,4.551,8.263h25.037C123.572,410.379,120.994,405.698,123.257,402.116z"/>
<g>
</g>
<g>
</g>
<g>
</g>
<g>
</g>
<g>
</g>
<g>
</g>
<g>
</g>
<g>
</g>
<g>
</g>
<g>
</g>
<g>
</g>
<g>
</g>
<g>
</g>
<g>
</g>
<g>
</g>
</svg>
